<?xml version="1.0" encoding="UTF-8"?><svg xmlns="http://www.w3.org/2000/svg" viewBox="0 0 36 36">
 <g id="change1_1"><path d="m34.193 13.329c0.387-0.371 0.733-0.795 1.019-1.28 1.686-2.854 0.27-10.292-0.592-10.8-0.695-0.411-5.529 1.05-8.246 3.132-2.498-1.497-5.343-2.381-8.374-2.381-3.021 0-5.856 0.879-8.349 2.367-2.721-2.074-7.532-3.528-8.227-3.118-0.861 0.508-2.276 7.947-0.592 10.8 0.278 0.471 0.615 0.884 0.989 1.249-1.155 2.552-1.821 5.342-1.821 8.181 0 9.989 8.011 12.521 18 12.521s18-2.532 18-12.521c0-2.828-0.66-5.606-1.807-8.15z" fill="#F4ABBA"/></g>
 <g id="change2_1"><path d="m7.398 5.965c-2.166-1.267-4.402-2.08-4.8-1.845-0.57 0.337-1.083 4.998-0.352 8.265 1.273-2.483 3.04-4.682 5.152-6.42zm26.355 6.419c0.733-3.267 0.219-7.928-0.351-8.265-0.398-0.235-2.635 0.578-4.801 1.845 2.114 1.739 3.88 3.938 5.152 6.42zm-5.753 10.741c0 4.487-3.097 9.375-10 9.375-6.904 0-10-4.888-10-9.375s3.096-5.625 10-5.625c6.903 0 10 1.138 10 5.625z" fill="#EA596E"/></g>
 <g id="change3_1"><path d="m15 24.6c0 1.857-0.34 2.4-1.5 2.4s-1.5-0.543-1.5-2.4c0-1.856 0.34-2.399 1.5-2.399s1.5 0.542 1.5 2.399zm9 0c0 1.857-0.34 2.4-1.5 2.4s-1.5-0.543-1.5-2.4c0-1.856 0.34-2.399 1.5-2.399s1.5 0.542 1.5 2.399z" fill="#662113"/></g>
 <g id="change4_1"><circle cx="7" cy="17" fill="#292F33" r="2"/></g>
 <g id="change4_2"><circle cx="29" cy="17" fill="#292F33" r="2"/></g>
</svg>